<?xml version="1.0" standalone="no"?>
<!DOCTYPE svg PUBLIC "-//W3C//DTD SVG 20010904//EN"
 "http://www.w3.org/TR/2001/REC-SVG-20010904/DTD/svg10.dtd">
<svg version="1.0" xmlns="http://www.w3.org/2000/svg"
 width="96.000000pt" height="96.000000pt" viewBox="0 0 96.000000 96.000000"
 preserveAspectRatio="xMidYMid meet">
<metadata>
Created by potrace 1.14, written by Peter Selinger 2001-2017
</metadata>
<g transform="translate(0.000000,96.000000) scale(0.100000,-0.100000)"
fill="#000000" stroke="none">
<path d="M550 940 c0 -13 -7 -20 -20 -20 -11 0 -19 -3 -19 -7 4 -23 -3 -33
-21 -33 -13 0 -20 -7 -20 -20 0 -17 -7 -20 -40 -20 -33 0 -40 3 -40 20 0 18
-7 20 -60 20 -52 0 -60 2 -58 18 3 14 -6 17 -59 20 -58 3 -63 1 -63 -18 0 -13
-7 -20 -18 -20 -16 0 -18 -10 -19 -80 l-2 -80 40 0 c32 0 39 -3 39 -19 0 -13
8 -21 23 -23 15 -2 21 -9 19 -20 -3 -16 7 -18 78 -18 72 0 80 -2 80 -19 0 -10
-9 -21 -21 -24 -18 -5 -20 -12 -18 -64 2 -87 1 -93 -21 -93 -11 0 -19 -3 -19
-7 3 -21 -3 -31 -21 -36 -11 -3 -20 -12 -20 -21 0 -13 -12 -16 -60 -16 -53 0
-60 -2 -60 -20 0 -18 -7 -20 -75 -20 l-75 0 0 -160 0 -160 480 0 480 0 0 120
0 120 -26 0 c-21 0 -25 4 -21 20 5 18 0 20 -39 20 -37 0 -44 3 -44 20 0 18 -7
20 -80 20 -73 0 -80 2 -80 20 0 19 -7 20 -99 20 -94 0 -100 1 -98 20 1 12 8
20 19 20 20 0 21 3 18 73 l-1 47 44 0 c40 0 45 -2 40 -20 -4 -15 0 -20 16 -20
14 0 21 -6 21 -20 0 -18 7 -20 80 -20 73 0 80 2 80 20 0 13 7 20 20 20 13 0
20 7 20 20 0 13 7 20 18 20 10 0 21 3 25 6 11 11 -5 34 -25 34 -15 0 -19 5
-15 20 4 16 0 20 -19 20 -17 0 -24 6 -24 20 0 13 -7 20 -20 20 -13 0 -20 7
-20 20 0 13 -7 20 -20 20 -14 0 -20 6 -18 18 3 14 -6 17 -59 20 l-62 3 2 39
c1 31 6 40 19 40 11 0 18 8 18 20 0 13 7 20 19 20 13 0 20 9 23 28 6 39 0 52
-23 52 -12 0 -19 7 -19 20 0 17 -7 20 -40 20 -33 0 -40 -3 -40 -20z"/>
</g>
</svg>
